<?xml version="1.0" standalone="no"?>
<!DOCTYPE svg PUBLIC "-//W3C//DTD SVG 20010904//EN"
 "http://www.w3.org/TR/2001/REC-SVG-20010904/DTD/svg10.dtd">
<svg version="1.0" xmlns="http://www.w3.org/2000/svg"
 width="300.000000pt" height="302.000000pt" viewBox="0 0 300.000000 302.000000"
 preserveAspectRatio="xMidYMid meet">
<metadata>
Created by potrace 1.10, written by Peter Selinger 2001-2011
</metadata>
<g transform="translate(0.000000,302.000000) scale(0.100000,-0.100000)"
fill="#000000" stroke="none">
<path d="M1380 2506 c-56 -16 -131 -54 -189 -96 l-44 -32 25 -25 25 -25 67 45
c133 90 291 102 430 33 39 -19 82 -46 96 -61 l24 -25 27 26 28 27 -47 37 c-60
48 -117 76 -189 95 -68 18 -190 18 -253 1z"/>
<path d="M1417 2369 c-45 -11 -90 -33 -135 -67 l-33 -25 27 -28 27 -28 37 30
c40 33 114 59 165 59 49 0 128 -27 172 -59 l41 -29 25 26 25 27 -42 33 c-82
62 -203 86 -309 61z"/>
<path d="M1448 2230 c-15 -4 -44 -18 -64 -30 l-35 -22 27 -29 c26 -28 27 -28
53 -9 44 32 90 34 143 7 l47 -24 22 23 c21 23 22 25 5 43 -36 40 -135 60 -198
41z"/>
<path d="M1415 2071 c-55 -25 -100 -76 -120 -136 -29 -89 4 -208 98 -352 24
-37 61 -86 81 -108 l36 -40 31 35 c51 58 109 147 147 228 66 139 53 268 -35
341 -63 52 -165 66 -238 32z m175 -41 c92 -47 122 -147 81 -265 -23 -64 -96
-191 -138 -240 l-26 -29 -33 39 c-89 106 -163 287 -149 364 21 119 157 186
265 131z"/>
<path d="M1454 1974 c-40 -19 -64 -62 -64 -114 0 -34 6 -48 34 -76 28 -28 42
-34 76 -34 68 0 114 36 126 99 9 44 -16 95 -58 121 -39 24 -72 25 -114 4z
m107 -53 c36 -36 37 -73 4 -106 -48 -49 -135 -18 -135 47 0 81 75 114 131 59z"/>
<path d="M1202 1869 c-47 -23 -83 -64 -107 -122 -50 -120 30 -269 159 -296 24
-5 31 -14 43 -55 36 -123 182 -190 298 -137 54 24 112 91 127 145 11 40 15 45
48 50 45 7 114 65 142 120 42 81 21 193 -49 257 -33 32 -93 63 -93 50 0 -5 -3
-16 -6 -25 -4 -10 -1 -16 10 -16 21 0 83 -56 102 -91 7 -15 14 -51 14 -80 0
-93 -64 -166 -161 -184 -34 -6 -37 -10 -43 -48 -14 -88 -93 -157 -180 -157
-76 0 -160 67 -171 138 -10 58 -11 59 -65 72 -62 15 -107 50 -131 105 -25 54
-24 102 4 155 19 39 64 81 98 92 6 2 9 14 7 26 l-3 22 -43 -21z"/>
<path d="M1453 1410 c-56 -23 -2 -66 71 -57 46 6 76 31 59 48 -15 15 -102 21
-130 9z m77 -25 c0 -17 -38 -20 -60 -4 -12 8 -9 10 13 6 15 -2 30 0 33 4 8 13
14 11 14 -6z"/>
<path d="M960 1068 c-1 -2 -2 -45 -3 -96 l-2 -92 53 0 c46 0 52 2 52 21 0 18
-5 21 -30 17 l-30 -5 0 79 c0 71 -2 78 -20 78 -11 0 -20 -1 -20 -2z"/>
<path d="M1080 975 c0 -94 0 -95 25 -95 24 0 24 0 21 92 -2 85 -3 91 -24 95
-21 3 -22 0 -22 -92z"/>
<path d="M1150 1055 c0 -5 13 -46 29 -90 26 -73 31 -80 58 -83 28 -3 29 0 57
80 15 46 30 89 33 96 3 8 -3 11 -19 9 -18 -3 -27 -16 -44 -65 -12 -34 -23 -64
-26 -67 -2 -2 -14 26 -26 63 -17 54 -26 68 -42 68 -11 0 -20 -5 -20 -11z"/>
<path d="M1350 973 l0 -93 55 0 c48 0 55 2 55 20 0 16 -7 20 -35 20 -28 0 -35
4 -35 20 0 16 7 20 30 20 20 0 30 5 30 15 0 10 -10 15 -30 15 -23 0 -30 4 -30
20 0 16 7 20 35 20 27 0 35 4 35 18 0 14 -9 17 -55 17 l-55 0 0 -92z"/>
<path d="M1536 1048 c-3 -14 2 -18 26 -18 l30 0 -4 -75 c-3 -72 -2 -75 20 -75
21 0 22 4 22 75 0 73 1 75 25 75 17 0 25 6 25 18 0 14 -10 17 -69 17 -58 0
-71 -3 -75 -17z"/>
<path d="M1748 1040 c-6 -14 -18 -47 -28 -75 -10 -27 -21 -58 -25 -67 -6 -15
-2 -18 19 -18 16 0 26 6 26 15 0 11 11 15 40 15 29 0 40 -4 40 -15 0 -9 10
-15 26 -15 17 0 25 5 22 13 -3 6 -18 49 -33 93 -26 73 -31 82 -53 80 -16 -1
-28 -10 -34 -26z m49 -60 c11 -28 10 -30 -14 -30 -19 0 -24 4 -19 16 3 9 6 22
6 30 0 24 15 15 27 -16z"/>
<path d="M1950 1063 c-37 -14 -60 -47 -60 -84 0 -21 3 -45 6 -54 8 -21 56 -45
89 -45 35 0 88 52 83 82 -2 13 -6 22 -10 21 -5 -2 -26 -3 -48 -3 -30 0 -40 -4
-40 -16 0 -13 7 -15 30 -10 17 3 30 2 30 -2 0 -16 -25 -32 -50 -32 -14 0 -31
5 -38 12 -19 19 -14 63 8 83 17 15 24 16 46 7 29 -14 64 -16 64 -4 0 28 -75
59 -110 45z"/>
</g>
</svg>
